<?xml version="1.0" encoding="UTF-8" standalone="no"?>
<!-- Created with Inkscape (http://www.inkscape.org/) -->

<svg
   width="512"
   height="512"
   viewBox="0 0 512 512"
   version="1.1"
   id="svg1"
   inkscape:export-filename="bitmap.svg"
   inkscape:export-xdpi="96"
   inkscape:export-ydpi="96"
   xmlns:inkscape="http://www.inkscape.org/namespaces/inkscape"
   xmlns:sodipodi="http://sodipodi.sourceforge.net/DTD/sodipodi-0.dtd"
   xmlns="http://www.w3.org/2000/svg"
   xmlns:svg="http://www.w3.org/2000/svg">
  <sodipodi:namedview
     id="namedview1"
     pagecolor="#ffffff"
     bordercolor="#000000"
     borderopacity="0.25"
     inkscape:showpageshadow="2"
     inkscape:pageopacity="0.0"
     inkscape:pagecheckerboard="0"
     inkscape:deskcolor="#d1d1d1"
     inkscape:document-units="px" />
  <defs
     id="defs1" />
  <g
     inkscape:label="Layer 1"
     inkscape:groupmode="layer"
     id="layer1">
    <rect
       style="fill:#14bdac;fill-opacity:1;stroke:#28e6f4;stroke-width:0;stroke-linecap:square;stroke-linejoin:round;paint-order:stroke fill markers"
       id="rect1"
       width="518.22266"
       height="522.58148"
       x="-3.1562078"
       y="-7.2669163" />
    <rect
       style="fill:#545454;fill-opacity:1;stroke:#28e6f4;stroke-width:0;stroke-linecap:square;stroke-linejoin:round;paint-order:stroke fill markers"
       id="rect2"
       width="10.16124"
       height="419.86716"
       x="190.75391"
       y="54.902195" />
    <rect
       style="fill:#545454;fill-opacity:1;stroke:#28e6f4;stroke-width:0;stroke-linecap:square;stroke-linejoin:round;paint-order:stroke fill markers"
       id="rect2-2"
       width="378.50577"
       height="11.712975"
       x="75.991035"
       y="166.92392"
       ry="4.9554863" />
    <rect
       style="fill:#545454;fill-opacity:1;stroke:#28e6f4;stroke-width:0;stroke-linecap:square;stroke-linejoin:round;paint-order:stroke fill markers"
       id="rect2-2-8"
       width="378.50577"
       height="11.712975"
       x="76.352348"
       y="345.07037"
       ry="4.9554863" />
    <rect
       style="fill:#545454;fill-opacity:1;stroke:#28e6f4;stroke-width:0;stroke-linecap:square;stroke-linejoin:round;paint-order:stroke fill markers"
       id="rect2-1"
       width="10.16124"
       height="419.86716"
       x="324.03214"
       y="51.28418" />
    <rect
       style="fill:#545454;fill-opacity:1;stroke:#28e6f4;stroke-width:0;stroke-linecap:square;stroke-linejoin:round;paint-order:stroke fill markers"
       id="rect2-1-3"
       width="7.800818"
       height="118.99432"
       x="368.88559"
       y="-65.782166"
       ry="0"
       transform="matrix(0.69889045,0.71522873,-0.69889045,0.71522873,0,0)" />
    <rect
       style="fill:#545454;fill-opacity:1;stroke:#28e6f4;stroke-width:0;stroke-linecap:square;stroke-linejoin:round;paint-order:stroke fill markers"
       id="rect2-1-3-0"
       width="7.800818"
       height="118.99432"
       x="353.18024"
       y="-259.37637"
       ry="0"
       transform="matrix(0.69889045,0.71522873,-0.69889045,0.71522873,0,0)" />
    <rect
       style="fill:#545454;fill-opacity:1;stroke:#28e6f4;stroke-width:0;stroke-linecap:square;stroke-linejoin:round;paint-order:stroke fill markers"
       id="rect2-1-3-9"
       width="7.6566319"
       height="116.79491"
       x="9.6681433"
       y="315.59204"
       ry="0"
       transform="matrix(0.68483561,-0.72869759,0.68483561,0.72869759,0,0)" />
    <rect
       style="fill:#545454;fill-opacity:1;stroke:#28e6f4;stroke-width:0;stroke-linecap:square;stroke-linejoin:round;paint-order:stroke fill markers"
       id="rect2-1-3-9-4"
       width="7.6566319"
       height="116.79491"
       x="203.85541"
       y="301.80008"
       ry="0"
       transform="matrix(0.68483561,-0.72869759,0.68483561,0.72869759,0,0)" />
    <path
       style="fill:#14bdac;fill-opacity:1;stroke:#545454;stroke-width:14.346;stroke-linecap:square;stroke-linejoin:round;stroke-dasharray:none;stroke-opacity:1;paint-order:stroke fill markers"
       id="path3"
       sodipodi:type="arc"
       sodipodi:cx="130.2099"
       sodipodi:cy="263.48428"
       sodipodi:rx="42.761837"
       sodipodi:ry="45.500622"
       sodipodi:start="0.090624799"
       sodipodi:end="0.047465063"
       sodipodi:open="true"
       sodipodi:arc-type="arc"
       d="m 172.79626,267.60213 a 42.761837,45.500622 0 0 1 -45.99662,41.23785 42.761837,45.500622 0 0 1 -39.24969,-48.49479 42.761837,45.500622 0 0 1 45.14963,-42.28434 42.761837,45.500622 0 0 1 40.224,47.58231" />
    <path
       style="fill:#14bdac;fill-opacity:1;stroke:#545454;stroke-width:14.346;stroke-linecap:square;stroke-linejoin:round;stroke-dasharray:none;stroke-opacity:1;paint-order:stroke fill markers"
       id="path3-7"
       sodipodi:type="arc"
       sodipodi:cx="262.38477"
       sodipodi:cy="109.29723"
       sodipodi:rx="42.761837"
       sodipodi:ry="45.500622"
       sodipodi:start="0.090624799"
       sodipodi:end="0.047465063"
       sodipodi:open="true"
       sodipodi:arc-type="arc"
       d="m 304.97112,113.41508 a 42.761837,45.500622 0 0 1 -45.99661,41.23785 42.761837,45.500622 0 0 1 -39.24969,-48.49479 42.761837,45.500622 0 0 1 45.14963,-42.284344 42.761837,45.500622 0 0 1 40.22399,47.582314" />
    <path
       style="fill:#14bdac;fill-opacity:1;stroke:#545454;stroke-width:14.346;stroke-linecap:square;stroke-linejoin:round;stroke-dasharray:none;stroke-opacity:1;paint-order:stroke fill markers"
       id="path3-7-2"
       sodipodi:type="arc"
       sodipodi:cx="390.68237"
       sodipodi:cy="415.92972"
       sodipodi:rx="42.761837"
       sodipodi:ry="45.500622"
       sodipodi:start="0.090624799"
       sodipodi:end="0.047465063"
       sodipodi:open="true"
       sodipodi:arc-type="arc"
       d="m 433.26873,420.04756 a 42.761837,45.500622 0 0 1 -45.99662,41.23786 42.761837,45.500622 0 0 1 -39.24969,-48.49479 42.761837,45.500622 0 0 1 45.14963,-42.28435 42.761837,45.500622 0 0 1 40.224,47.58232" />
  </g>
</svg>
